<svg id="visual" viewBox="0 0 900 200" width="900" height="200" xmlns="http://www.w3.org/2000/svg" xmlns:xlink="http://www.w3.org/1999/xlink" version="1.1"><path d="M0 49L25 48C50 47 100 45 150 56.3C200 67.7 250 92.3 300 102.2C350 112 400 107 450 98.5C500 90 550 78 600 76.5C650 75 700 84 750 97.3C800 110.7 850 128.3 875 137.2L900 146L900 0L875 0C850 0 800 0 750 0C700 0 650 0 600 0C550 0 500 0 450 0C400 0 350 0 300 0C250 0 200 0 150 0C100 0 50 0 25 0L0 0Z" fill="#944ece" stroke-linecap="round" stroke-linejoin="miter"></path></svg>